<svg xmlns="http://www.w3.org/2000/svg" viewBox="0 0 100 100" width="32" height="32">
  <defs>
    <linearGradient id="F1" x1="0" y1="0" x2="1" y2="1"><stop offset="0%" stop-color="#C4B8E4" stop-opacity=".90"/><stop offset="100%" stop-color="#7050A0" stop-opacity=".70"/></linearGradient>
    <linearGradient id="F2" x1="1" y1="0" x2="0" y2="1"><stop offset="0%" stop-color="#B8AEDD" stop-opacity=".70"/><stop offset="100%" stop-color="#4A2880" stop-opacity=".55"/></linearGradient>
    <linearGradient id="F3" x1="0" y1="0" x2="0" y2="1"><stop offset="0%" stop-color="#9070C0" stop-opacity=".55"/><stop offset="100%" stop-color="#2B1250" stop-opacity=".80"/></linearGradient>
    <linearGradient id="F4" x1="1" y1="0" x2="0" y2="1"><stop offset="0%" stop-color="#D0C4EC" stop-opacity=".80"/><stop offset="100%" stop-color="#5A38A0" stop-opacity=".60"/></linearGradient>
    <linearGradient id="Tbl" x1="0" y1="0" x2="1" y2="1"><stop offset="0%" stop-color="#E8E2F8" stop-opacity=".95"/><stop offset="100%" stop-color="#B090D8" stop-opacity=".80"/></linearGradient>
    <linearGradient id="P1" x1="0" y1="0" x2="0" y2="1"><stop offset="0%" stop-color="#0CC89E" stop-opacity=".38"/><stop offset="100%" stop-color="#0CC89E" stop-opacity=".05"/></linearGradient>
    <linearGradient id="P2" x1="0" y1="0" x2="0" y2="1"><stop offset="0%" stop-color="#7ADAC8" stop-opacity=".25"/><stop offset="100%" stop-color="#0CC89E" stop-opacity=".03"/></linearGradient>
    <linearGradient id="Str" x1="0" y1="0" x2="1" y2="1"><stop offset="0%" stop-color="#C4B8E4" stop-opacity=".55"/><stop offset="50%" stop-color="#B8AEDD" stop-opacity=".35"/><stop offset="100%" stop-color="#7050A0" stop-opacity=".25"/></linearGradient>
    <linearGradient id="Caustic" x1="0" y1="0" x2="1" y2="0">
      <stop offset="0%"   stop-color="white" stop-opacity="0"/>
      <stop offset="42%"  stop-color="white" stop-opacity="0"/>
      <stop offset="50%"  stop-color="white" stop-opacity=".18"/>
      <stop offset="58%"  stop-color="white" stop-opacity="0"/>
      <stop offset="100%" stop-color="white" stop-opacity="0"/>
    </linearGradient>
    <filter id="Glow" x="-20%" y="-20%" width="140%" height="140%">
      <feGaussianBlur in="SourceGraphic" stdDeviation="1.2" result="b"/>
      <feMerge><feMergeNode in="b"/><feMergeNode in="SourceGraphic"/></feMerge>
    </filter>
    <clipPath id="Clip"><polygon points="50,3 97,50 50,97 3,50"/></clipPath>
  </defs>

  <!-- Pavilion (bottom) -->
  <polygon points="50,78 28,50 3,50 50,97"  fill="url(#P1)" opacity=".80"/>
  <polygon points="50,78 72,50 97,50 50,97" fill="url(#P2)" opacity=".80"/>

  <!-- Crown (top) -->
  <polygon points="50,22 28,50 3,50 50,3"   fill="url(#F1)"/>
  <polygon points="50,22 72,50 97,50 50,3"  fill="url(#F4)"/>
  <polygon points="3,50  50,22 28,50"        fill="url(#F2)"/>
  <polygon points="97,50 50,22 72,50"        fill="url(#F3)"/>

  <!-- Table (centre face) -->
  <polygon points="50,22 72,50 50,78 28,50" fill="url(#Tbl)" filter="url(#Glow)"/>

  <!-- Culet -->
  <circle cx="50" cy="50" r="2.5" fill="#EDE8F6" opacity=".95" filter="url(#Glow)"/>

  <!-- Outline strokes -->
  <polygon points="50,3 97,50 50,97 3,50"   fill="none" stroke="url(#Str)" stroke-width=".45"/>
  <polygon points="50,22 72,50 50,78 28,50" fill="none" stroke="#C4B8E4"   stroke-width=".4"  opacity=".25"/>

  <!-- Facet lines -->
  <line x1="50" y1="3"  x2="50" y2="22" stroke="#C4B8E4" stroke-width=".35" opacity=".45"/>
  <line x1="3"  y1="50" x2="28" y2="50" stroke="#C4B8E4" stroke-width=".35" opacity=".35"/>
  <line x1="97" y1="50" x2="72" y2="50" stroke="#C4B8E4" stroke-width=".35" opacity=".35"/>
  <line x1="50" y1="22" x2="28" y2="50" stroke="#C4B8E4" stroke-width=".30" opacity=".28"/>
  <line x1="50" y1="22" x2="72" y2="50" stroke="#C4B8E4" stroke-width=".30" opacity=".28"/>
  <line x1="50" y1="78" x2="28" y2="50" stroke="#0CC89E" stroke-width=".25" opacity=".22"/>
  <line x1="50" y1="78" x2="72" y2="50" stroke="#0CC89E" stroke-width=".25" opacity=".22"/>

  <!-- Caustic shimmer -->
  <g clip-path="url(#Clip)">
    <rect x="-110" y="0" width="220" height="100" fill="url(#Caustic)">
      <animateTransform attributeName="transform" type="translate"
        values="-40,0;140,0;140,0;-40,0"
        keyTimes="0;0.38;1;1" dur="9s" repeatCount="indefinite"
        calcMode="spline" keySplines="0.4 0 0.2 1;0 0 1 1;0 0 1 1"/>
    </rect>
  </g>
</svg>
